<?xml version="1.0" standalone="no"?>
<!DOCTYPE svg PUBLIC "-//W3C//DTD SVG 20010904//EN"
 "http://www.w3.org/TR/2001/REC-SVG-20010904/DTD/svg10.dtd">
<svg version="1.0" xmlns="http://www.w3.org/2000/svg"
 width="644.000000pt" height="644.000000pt" viewBox="0 0 644.000000 644.000000"
 preserveAspectRatio="xMidYMid meet">
<metadata>
Created by potrace 1.11, written by Peter Selinger 2001-2013
</metadata>
<g transform="translate(0.000000,644.000000) scale(0.100000,-0.100000)"
fill="#000000" stroke="none">
<path d="M720 6285 c-522 -150 -560 -163 -560 -200 0 -6 337 -955 749 -2109
l749 -2097 -299 -897 c-164 -493 -299 -902 -299 -909 0 -7 10 -21 22 -33 21
-20 33 -20 479 -20 260 0 468 4 482 9 23 9 52 92 322 900 l297 891 558 0 558
0 297 -890 c218 -653 302 -893 315 -900 24 -13 920 -13 953 -1 13 5 27 20 30
34 5 16 -86 301 -292 920 l-299 896 749 2098 c438 1225 748 2106 745 2118 -3
11 -13 25 -23 31 -37 23 -1083 315 -1104 309 -11 -4 -24 -16 -30 -28 -5 -12
-162 -697 -349 -1522 -188 -825 -345 -1513 -349 -1530 -6 -21 -10 -25 -14 -15
-4 8 -78 263 -166 565 -591 2034 -670 2300 -688 2312 -24 18 -656 14 -674 -4
-10 -10 -168 -546 -680 -2308 -172 -593 -169 -585 -175 -570 -2 6 -161 700
-353 1544 -360 1586 -354 1562 -400 1560 -9 0 -257 -69 -551 -154z m516 -17
c3 -18 170 -750 369 -1627 285 -1253 366 -1597 381 -1608 25 -18 51 -16 72 5
10 11 184 593 461 1545 l445 1527 256 0 256 0 445 -1527 c277 -952 451 -1534
462 -1545 20 -21 46 -23 71 -5 15 11 98 361 388 1637 203 893 371 1626 374
1629 5 6 905 -248 917 -259 4 -4 -326 -941 -734 -2083 l-741 -2076 286 -858
c157 -472 286 -864 286 -871 0 -9 -84 -12 -384 -12 l-384 0 -297 890 c-218
653 -302 893 -315 900 -24 13 -1219 14 -1253 1 -23 -9 -52 -92 -322 -900
l-297 -891 -384 0 c-300 0 -384 3 -384 12 0 7 129 399 286 871 l286 858 -737
2064 c-405 1135 -738 2071 -738 2080 -2 15 74 39 443 146 245 70 453 128 462
128 11 1 19 -10 24 -31z"/>
<path d="M3187 4628 c-15 -12 -627 -1821 -627 -1855 0 -7 10 -21 22 -33 21
-20 32 -20 627 -20 333 0 616 3 629 7 58 15 63 -4 -260 965 -167 500 -311 918
-321 929 -21 22 -46 24 -70 7z"/>
</g>
</svg>
